<?xml version="1.0" encoding="UTF-8"?>
<svg width="107px" height="107px" viewBox="0 0 107 107" version="1.1" xmlns="http://www.w3.org/2000/svg" xmlns:xlink="http://www.w3.org/1999/xlink">
    <!-- Generator: Sketch 60 (88103) - https://sketch.com -->
    <title>Artboard</title>
    <desc>Created with Sketch.</desc>
    <g id="Artboard" stroke="none" stroke-width="1" fill="none" fill-rule="evenodd">
        <g id="noun_Melting-Clock_668404" transform="translate(15.000000, 0.000000)" fill="#000000" fill-rule="nonzero">
            <path d="M78,40.8891229 C78,18.7009121 60.5055719,0.649 39,0.649 C17.4955871,0.649 5.68434189e-14,18.7009121 5.68434189e-14,40.8891229 C5.68434189e-14,58.3371521 10.7145404,73.5980492 26.7069626,79.0688692 L26.7011679,79.0856105 C31.5513952,80.8649722 32.6732638,87.5758447 33.1519123,90.439804 L33.1947936,90.6933152 C33.5355264,92.7154259 34.9772666,94.2221436 36.700633,94.3548782 C38.4703575,94.5019626 39.9630917,93.1853783 40.7117768,90.8667073 C41.066417,89.7725433 41.3468842,88.5898896 41.6169207,87.4455017 C41.8962289,86.2676312 42.2995453,84.5719759 42.6576625,83.8831907 C42.7202461,83.9477643 42.7932602,84.0326667 42.8790229,84.1450726 C43.8038691,85.336097 43.8687706,89.3958639 43.9209236,92.6556356 C44.0032094,97.6959648 44.0681109,101.675613 46.3431399,102.505503 C46.6282428,102.608343 46.8878488,102.649 47.1173219,102.649 C47.6226264,102.649 47.9911741,102.455279 48.1986271,102.306999 C49.4700009,101.398185 49.5152001,99.1309339 49.5893733,95.3725105 C49.6137113,94.1049544 49.6426852,92.6687894 49.72613,91.1907712 C49.880271,88.4882459 50.216368,82.6144388 50.8398859,80.5444958 C51.1597575,81.20219 51.5804582,82.2760253 51.9130784,83.1250487 C53.3455469,86.7866117 54.5925827,89.9399564 56.7262191,89.5357734 C58.3394847,89.2236676 58.7045556,86.9767451 59.3095302,83.2553917 C59.9098689,79.5615419 60.7315682,74.5056672 62.9161986,72.6712983 L62.9080859,72.660536 C72.5030757,64.9762761 78,53.4486905 78,40.8891229 Z M57.905,66.038 C55.781,68.197 56.117,72.381 55.552,75.75 C55.359,76.901 55.109,78.396 54.856,79.12 C54.262,78.356 53.43,76.294 52.998,75.223 C52.222,73.301 50.79,72.277 50.211,71.817 C49.486,71.242 48.85,71.391 48.534,71.532 C47.195,72.131 47.749,74.303 47.261,82.6 C47.186,83.874 47.161,85.096 47.139,86.173 C47.11,87.632 47.074,89.396 46.868,90.133 C46.338,89.263 46.28,85.825 46.248,83.908 C46.189,80.409 45.135,77.104 43.911,75.574 C43.21,74.699 42.476,74.338 41.743,74.5 C40.37,74.804 39.928,76.609 39.316,79.108 C39.092,80.026 38.859,80.974 38.58,81.812 C38.242,82.827 37.715,83.396 37.165,83.368 C36.694,83.333 36.112,82.826 35.961,81.957 L35.924,81.748 C35.463,79.076 34.388,72.921 29.436,70.87 C16.218,66.691 7.348,54.527 7.348,40.651 C7.349,23.199 21.548,9 39,9 C56.452,9 70.651,23.199 70.651,40.651 C70.651,50.742 66.006,59.996 57.905,66.038 Z" id="Shape"></path>
            <path d="M37.2602004,42.7313165 L28.0283171,47.9686063 C27.0675801,48.5136368 26.7305835,49.7343025 27.275614,50.6950395 C27.3763957,50.8726896 27.5037952,51.0338539 27.6533802,51.1729254 L29.2254746,52.6345263 C29.8645294,53.2286656 30.8150101,53.3399205 31.5739997,52.909424 L42.7350484,46.5789128 C43.2605794,46.2808334 43.6231963,45.7611604 43.7216129,45.1650494 L47.9589339,19.4995136 C48.1002507,18.6435552 47.6736176,17.794095 46.9026313,17.3963318 L45.0085027,16.4191231 C44.0268737,15.9126862 42.820558,16.2979056 42.3141212,17.2795346 C42.2183604,17.4651481 42.152265,17.6646161 42.1182382,17.8706857 L38.2466149,41.3175822 C38.1481958,41.9136173 37.7856422,42.4332309 37.2602004,42.7313165 Z" id="Path"></path>
            <path d="M37.951,99.152 L37.356,98.724 L36.769,99.163 C36.634,99.265 33.472,101.673 34.367,104.608 C34.79,105.999 36.123,107 37.545,107 C37.555,107 37.565,107 37.574,107 C38.898,106.987 39.971,106.098 40.374,104.678 C41.256,101.568 38.086,99.25 37.951,99.152 Z M38.45,104.133 C38.288,104.704 37.987,104.996 37.555,105 C37.552,105 37.549,105 37.546,105 C37.067,105 36.466,104.638 36.28,104.026 C35.968,103.003 36.775,101.931 37.379,101.306 C37.979,101.92 38.773,102.99 38.45,104.133 Z" id="Shape"></path>
        </g>
    </g>
</svg>