<?xml version="1.0" encoding="UTF-8"?>
<svg width="32px" height="32px" viewBox="0 0 32 32" version="1.1" xmlns="http://www.w3.org/2000/svg" xmlns:xlink="http://www.w3.org/1999/xlink">
    <!-- Generator: Sketch 60 (88103) - https://sketch.com -->
    <title>addMinute</title>
    <desc>Created with Sketch.</desc>
    <g id="addMinute" stroke="none" stroke-width="1" fill="none" fill-rule="evenodd">
        <g id="Group" transform="translate(5.000000, 3.500000)" fill="#2D6095" fill-rule="nonzero">
            <path d="M9,6.5 C9,6.96083333 8.964,7.33333333 8.54925,7.33333333 L5.25,7.33333333 L5.25,10.9991667 C5.25,11.4591667 4.91475,11.5 4.5,11.5 C4.08525,11.5 3.75,11.4591667 3.75,10.9991667 L3.75,7.33333333 L0.45075,7.33333333 C0.03675,7.33333333 0,6.96083333 0,6.5 C0,6.03916667 0.03675,5.66666667 0.45075,5.66666667 L3.75,5.66666667 L3.75,2.00083333 C3.75,1.54 4.08525,1.5 4.5,1.5 C4.91475,1.5 5.25,1.54 5.25,2.00083333 L5.25,5.66666667 L8.54925,5.66666667 C8.964,5.66666667 9,6.03916667 9,6.5 Z" id="Path" stroke="#2D6095"></path>
            <path d="M23,12.5 L23,9.95709282 L20.6150235,9.95709282 L20.6150235,0.5 L18.0422535,0.5 C17.9796557,0.626094571 17.8325509,0.797723292 17.600939,1.01488616 C17.3693271,1.23204904 17.0970266,1.45271454 16.7840376,1.67688266 C16.4710485,1.90105079 16.1517997,2.09369527 15.8262911,2.25481611 C15.5007825,2.41593695 15.2253521,2.49649737 15,2.49649737 L15,2.49649737 L15,5.1234676 C15.2378717,5.1234676 15.5101721,5.07443082 15.8169014,4.97635727 C16.1236307,4.87828371 16.4209703,4.75218914 16.7089202,4.59807356 C16.9968701,4.44395797 17.2629108,4.2793345 17.5070423,4.10420315 C17.7511737,3.9290718 17.9295775,3.75744308 18.0422535,3.58931699 L18.0422535,3.58931699 L18.0422535,9.95709282 L15.3755869,9.95709282 L15.3755869,12.5 L23,12.5 Z" id="1"></path>
        </g>
        <path d="M6.9,28.49 L6.9,24.512 C7.03,24.0873333 7.24883333,23.745 7.5565,23.485 C7.86416667,23.225 8.187,23.095 8.525,23.095 C8.85433333,23.095 9.11216667,23.2206667 9.2985,23.472 C9.48483333,23.7233333 9.578,24.122 9.578,24.668 L9.578,24.668 L9.578,28.49 L11.32,28.49 L11.32,24.525 C11.45,24.1003333 11.6666667,23.7558333 11.97,23.4915 C12.2733333,23.2271667 12.5983333,23.095 12.945,23.095 C13.2743333,23.095 13.5321667,23.2206667 13.7185,23.472 C13.9048333,23.7233333 13.998,24.122 13.998,24.668 L13.998,24.668 L13.998,28.49 L15.74,28.49 L15.74,24.239 C15.74,23.9096667 15.7118333,23.5846667 15.6555,23.264 C15.5991667,22.9433333 15.4973333,22.6573333 15.35,22.406 C15.2026667,22.1546667 14.9946667,21.951 14.726,21.795 C14.4573333,21.639 14.115,21.561 13.699,21.561 C13.153,21.561 12.6676667,21.6845 12.243,21.9315 C11.8183333,22.1785 11.4673333,22.536 11.19,23.004 C11.1033333,22.5966667 10.904,22.2543333 10.592,21.977 C10.28,21.6996667 9.838,21.561 9.266,21.561 C8.70266667,21.561 8.20216667,21.6801667 7.7645,21.9185 C7.32683333,22.1568333 6.98233333,22.497 6.731,22.939 L6.731,22.939 L6.731,21.678 L5.158,21.678 L5.158,28.49 L6.9,28.49 Z M19.003,20.729 L19.003,19 L17.261,19 L17.261,20.729 L19.003,20.729 Z M19.003,28.49 L19.003,21.678 L17.261,21.678 L17.261,28.49 L19.003,28.49 Z M22.318,28.49 L22.318,24.512 C22.3786667,24.304 22.474,24.1133333 22.604,23.94 C22.734,23.7666667 22.8791667,23.6171667 23.0395,23.4915 C23.1998333,23.3658333 23.371,23.2683333 23.553,23.199 C23.735,23.1296667 23.9126667,23.095 24.086,23.095 C24.424,23.095 24.6883333,23.2206667 24.879,23.472 C25.0696667,23.7233333 25.165,24.122 25.165,24.668 L25.165,24.668 L25.165,28.49 L26.907,28.49 L26.907,24.239 C26.907,23.9096667 26.8788333,23.5846667 26.8225,23.264 C26.7661667,22.9433333 26.6643333,22.6573333 26.517,22.406 C26.3696667,22.1546667 26.1616667,21.951 25.893,21.795 C25.6243333,21.639 25.2776667,21.561 24.853,21.561 C24.255,21.561 23.7176667,21.6823333 23.241,21.925 C22.7643333,22.1676667 22.4003333,22.5056667 22.149,22.939 L22.149,22.939 L22.149,21.678 L20.576,21.678 L20.576,28.49 L22.318,28.49 Z" id="min" fill="#2D6095" fill-rule="nonzero"></path>
    </g>
</svg>