<?xml version="1.0" encoding="UTF-8"?>
<svg width="32px" height="32px" viewBox="0 0 32 32" version="1.1" xmlns="http://www.w3.org/2000/svg" xmlns:xlink="http://www.w3.org/1999/xlink">
    <!-- Generator: Sketch 60 (88103) - https://sketch.com -->
    <title>addMinute</title>
    <desc>Created with Sketch.</desc>
    <g id="addMinute" stroke="none" stroke-width="1" fill="none" fill-rule="evenodd">
        <g id="Group" transform="translate(3.000000, 0.500000)" fill="#2D6095" fill-rule="nonzero">
            <path d="M12,7.5 C12,8.053 11.952,8.5 11.399,8.5 C9.73703367,8.5 8.49055893,8.5 7.65957576,8.5 C7.51300337,8.5 7.29314478,8.5 7,8.5 L7,12.899 C7,13.451 6.553,13.5 6,13.5 C5.447,13.5 5,13.451 5,12.899 L5,8.5 L0.601,8.5 C0.049,8.5 0,8.053 0,7.5 C0,6.947 0.049,6.5 0.601,6.5 L5,6.5 L5,2.101 C5,1.548 5.447,1.5 6,1.5 C6.553,1.5 7,1.548 7,2.101 L7,6.5 L11.399,6.5 C11.952,6.5 12,6.947 12,7.5 Z" id="Path" stroke="#2D6095"></path>
            <path d="M26,14.5 L26,11.533275 L23.0187793,11.533275 L23.0187793,0.5 L19.8028169,0.5 C19.7245696,0.647110333 19.5406886,0.847343841 19.2511737,1.10070053 C18.9616588,1.35405721 18.6212833,1.61150029 18.2300469,1.87302977 C17.8388106,2.13455925 17.4397496,2.35931115 17.0328638,2.54728546 C16.6259781,2.73525978 16.2816901,2.82924694 16,2.82924694 L16,2.82924694 L16,5.89404553 C16.2973396,5.89404553 16.6377152,5.83683596 17.0211268,5.72241681 C17.4045383,5.60799766 17.7762128,5.46088733 18.1361502,5.28108581 C18.4960876,5.1012843 18.8286385,4.90922358 19.1338028,4.70490368 C19.4389671,4.50058377 19.6619718,4.30035026 19.8028169,4.10420315 L19.8028169,4.10420315 L19.8028169,11.533275 L16.4694836,11.533275 L16.4694836,14.5 L26,14.5 Z" id="1"></path>
        </g>
        <path d="M4.3046683,30 L4.3046683,24.8330206 C4.47665848,24.2814259 4.76617527,23.836773 5.17321867,23.4990619 C5.58026208,23.1613508 6.00737101,22.9924953 6.45454545,22.9924953 C6.89025389,22.9924953 7.23136773,23.1557223 7.47788698,23.4821764 C7.72440622,23.8086304 7.84766585,24.326454 7.84766585,25.0356473 L7.84766585,30 L10.1523342,30 L10.1523342,24.8499062 C10.3243243,24.2983114 10.6109746,23.8508443 11.012285,23.5075047 C11.4135954,23.1641651 11.8435708,22.9924953 12.3022113,22.9924953 C12.7379197,22.9924953 13.0790336,23.1557223 13.3255528,23.4821764 C13.5720721,23.8086304 13.6953317,24.326454 13.6953317,25.0356473 L13.6953317,30 L16,30 L16,24.478424 C16,24.0506567 15.9627355,23.6285178 15.8882064,23.2120075 C15.8136773,22.7954972 15.6789517,22.424015 15.4840295,22.097561 C15.2891073,21.7711069 15.013923,21.5065666 14.6584767,21.30394 C14.3030303,21.1013133 13.8501229,21 13.2997543,21 C12.5773956,21 11.9352989,21.1604128 11.3734644,21.4812383 C10.8116298,21.8020638 10.3472563,22.2664165 9.98034398,22.8742964 C9.86568387,22.3452158 9.6019656,21.9005629 9.18918919,21.5403377 C8.77641278,21.1801126 8.19164619,21 7.43488943,21 C6.68959869,21 6.02743653,21.1547842 5.44840295,21.4643527 C4.86936937,21.7739212 4.41359541,22.2157598 4.08108108,22.7898687 L4.08108108,21.15197 L2,21.15197 L2,30 L4.3046683,30 Z M20,20 L20,18 L18,18 L18,20 L20,20 Z M20,30 L20,21 L18,21 L18,30 L20,30 Z M24.201232,30 L24.201232,24.8330206 C24.2778919,24.5628518 24.3983573,24.315197 24.5626283,24.0900563 C24.7268994,23.8649156 24.9103354,23.6707317 25.1129363,23.5075047 C25.3155373,23.3442777 25.5318275,23.217636 25.761807,23.1275797 C25.9917864,23.0375235 26.2162902,22.9924953 26.4353183,22.9924953 C26.862423,22.9924953 27.1964408,23.1557223 27.4373717,23.4821764 C27.6783025,23.8086304 27.798768,24.326454 27.798768,25.0356473 L27.798768,30 L30,30 L30,24.478424 C30,24.0506567 29.9644079,23.6285178 29.8932238,23.2120075 C29.8220397,22.7954972 29.6933607,22.424015 29.5071869,22.097561 C29.321013,21.7711069 29.0581793,21.5065666 28.7186858,21.30394 C28.3791923,21.1013133 27.9411362,21 27.4045175,21 C26.6488706,21 25.9698836,21.1575985 25.3675565,21.4727955 C24.7652293,21.7879925 24.3052704,22.2270169 23.9876797,22.7898687 L23.9876797,21.15197 L22,21.15197 L22,30 L24.201232,30 Z" id="min" fill="#2D6095" fill-rule="nonzero"></path>
    </g>
</svg>