<?xml version="1.0" encoding="UTF-8"?>
<svg width="32px" height="32px" viewBox="0 0 32 32" version="1.1" xmlns="http://www.w3.org/2000/svg" xmlns:xlink="http://www.w3.org/1999/xlink">
    <!-- Generator: Sketch 60 (88103) - https://sketch.com -->
    <title>reset</title>
    <desc>Created with Sketch.</desc>
    <g id="reset" stroke="none" stroke-width="1" fill="none" fill-rule="evenodd">
        <path d="M26.5959944,5.40625 C23.8755441,2.6875 20.1419606,1 15.9956191,1 C7.70293621,1 1.005,7.7125 1.005,16 C1.005,24.2875 7.70293621,31 15.9956191,31 C22.993743,31 28.8286398,26.21875 30.4984334,19.75 L26.5959944,19.75 C25.0575328,24.11875 20.8924296,27.25 15.9956191,27.25 C9.7854878,27.25 4.73858349,22.20625 4.73858349,16 C4.73858349,9.79375 9.7854878,4.75 15.9956191,4.75 C19.1100657,4.75 21.8868011,6.04375 23.9130675,8.0875 L19.5801873,12.4176722 C19.1895409,12.8080744 19.189343,13.4412394 19.5797452,13.8318857 C19.7672995,14.0195573 20.0217482,14.125 20.287073,14.125 L30.005,14.125 C30.5572847,14.125 31.005,13.6772847 31.005,13.125 L31.005,3.41314669 C31.005,2.86086194 30.5572847,2.41314669 30.005,2.41314669 C29.7398918,2.41314669 29.4856327,2.51841773 29.2981143,2.7058189 L26.5959944,5.40625 L26.5959944,5.40625 Z" id="Path" fill="#2D6095" fill-rule="nonzero" transform="translate(16.005000, 16.000000) scale(-1, 1) translate(-16.005000, -16.000000) "></path>
    </g>
</svg>