<?xml version="1.0" encoding="UTF-8"?>
<svg width="32px" height="32px" viewBox="0 0 32 32" version="1.1" xmlns="http://www.w3.org/2000/svg" xmlns:xlink="http://www.w3.org/1999/xlink">
    <!-- Generator: Sketch 60 (88103) - https://sketch.com -->
    <title>reset</title>
    <desc>Created with Sketch.</desc>
    <g id="reset" stroke="none" stroke-width="1" fill="none" fill-rule="evenodd">
        <path d="M25.8899281,6.1125 C23.3508412,3.575 19.8661632,2 15.9962445,2 C8.25640713,2 2.005,8.265 2.005,16 C2.005,23.735 8.25640713,30 15.9962445,30 C22.5278268,30 27.9737305,25.5375 29.5322045,19.5 L25.8899281,19.5 C24.4540306,23.5775 20.566601,26.5 15.9962445,26.5 C10.200122,26.5 5.48967792,21.7925 5.48967792,16 C5.48967792,10.2075 10.200122,5.5 15.9962445,5.5 C18.9030613,5.5 21.4946811,6.7075 23.385863,8.615 L19.4557345,12.5426722 C19.0650881,12.9330744 19.0648902,13.5662394 19.4552924,13.9568857 C19.6428467,14.1445573 19.8972954,14.25 20.1626202,14.25 L29.005,14.25 C29.5572847,14.25 30.005,13.8022847 30.005,13.25 L30.005,4.41314669 C30.005,3.86086194 29.5572847,3.41314669 29.005,3.41314669 C28.7398918,3.41314669 28.4856327,3.51841773 28.2981143,3.7058189 L25.8899281,6.1125 L25.8899281,6.1125 Z" id="Path" fill="#2D6095" fill-rule="nonzero" transform="translate(16.005000, 16.000000) scale(-1, 1) translate(-16.005000, -16.000000) "></path>
    </g>
</svg>